<?xml version="1.0" encoding="utf-8"?>
<!-- Generator: Adobe Illustrator 16.0.0, SVG Export Plug-In . SVG Version: 6.00 Build 0)  -->
<!DOCTYPE svg PUBLIC "-//W3C//DTD SVG 1.1//EN" "http://www.w3.org/Graphics/SVG/1.1/DTD/svg11.dtd">
<svg version="1.1" id="Layer_1" xmlns="http://www.w3.org/2000/svg" xmlns:xlink="http://www.w3.org/1999/xlink" x="0px" y="0px"
	 width="100px" height="100px" viewBox="0 0 100 100" enable-background="new 0 0 100 100" xml:space="preserve">
<linearGradient id="SVGID_1_" gradientUnits="userSpaceOnUse" x1="-102.5503" y1="79.1538" x2="-80.6968" y2="79.1538">
	<stop  offset="0" style="stop-color:#3D434F"/>
	<stop  offset="1" style="stop-color:#E5204F"/>
</linearGradient>
<path fill="url(#SVGID_1_)" d="M-91.624,68.227c-6.024,0-10.927,4.902-10.927,10.927c0,6.025,4.902,10.927,10.927,10.927
	c6.025,0,10.927-4.901,10.927-10.927C-80.697,73.129-85.598,68.227-91.624,68.227z M-91.624,86.581
	c-4.095,0-7.427-3.331-7.427-7.427c0-4.095,3.332-7.427,7.427-7.427c4.096,0,7.427,3.332,7.427,7.427
	C-84.197,83.25-87.528,86.581-91.624,86.581z"/>
<linearGradient id="SVGID_2_" gradientUnits="userSpaceOnUse" x1="-58.3354" y1="79.1538" x2="-36.4819" y2="79.1538">
	<stop  offset="0" style="stop-color:#3D434F"/>
	<stop  offset="1" style="stop-color:#E5204F"/>
</linearGradient>
<path fill="url(#SVGID_2_)" d="M-47.409,68.227c-6.024,0-10.927,4.902-10.927,10.927c0,6.025,4.902,10.927,10.927,10.927
	c6.025,0,10.927-4.901,10.927-10.927C-36.482,73.129-41.383,68.227-47.409,68.227z M-47.409,86.581
	c-4.095,0-7.427-3.331-7.427-7.427c0-4.095,3.332-7.427,7.427-7.427c4.096,0,7.427,3.332,7.427,7.427
	C-39.982,83.25-43.313,86.581-47.409,86.581z"/>
<linearGradient id="SVGID_3_" gradientUnits="userSpaceOnUse" x1="-106.7212" y1="24.7192" x2="-24.3843" y2="24.7192">
	<stop  offset="0" style="stop-color:#3D434F"/>
	<stop  offset="1" style="stop-color:#E5204F"/>
</linearGradient>
<path fill="url(#SVGID_3_)" d="M-26.134,16.921h-54.227c-0.176,0-0.351,0.026-0.519,0.078c-25.224,7.828-25.64,10.328-25.817,11.396
	c-0.017,0.095-0.024,0.191-0.024,0.287V30.7c0,0.959,0.771,1.739,1.73,1.75l5.859,0.067h72.997c0.966,0,1.75-0.783,1.75-1.75V18.671
	C-24.384,17.705-25.168,16.921-26.134,16.921z M-27.884,29.017h-71.228l-3.728-0.043c2.813-1.795,13.405-5.645,22.744-8.553h52.211
	V29.017z"/>
<linearGradient id="SVGID_4_" gradientUnits="userSpaceOnUse" x1="-118.1157" y1="57.6719" x2="-24.5171" y2="57.6719">
	<stop  offset="0" style="stop-color:#3D434F"/>
	<stop  offset="1" style="stop-color:#E5204F"/>
</linearGradient>
<path fill="url(#SVGID_4_)" d="M-26.267,67.39h-1.455V44.403c0-3.883-3.159-7.043-7.043-7.043h-56.153
	c-3.994,0-19.757,13.437-23.104,19.694c-1.294,2.421-1.203,6.646-0.771,10.336h-1.572c-0.966,0-1.75,0.784-1.75,1.75v7.094
	c0,0.967,0.784,1.75,1.75,1.75h9.853c0.838,0,1.558-0.593,1.718-1.415c1.225-6.282,6.765-10.842,13.172-10.842
	s11.947,4.56,13.172,10.842c0.16,0.822,0.88,1.415,1.718,1.415h14.471c0.838,0,1.558-0.593,1.718-1.415
	c1.225-6.282,6.765-10.842,13.172-10.842s11.947,4.56,13.172,10.842c0.16,0.822,0.88,1.415,1.718,1.415h6.217
	c0.967,0,1.75-0.783,1.75-1.75V69.14C-24.517,68.174-25.3,67.39-26.267,67.39z M-28.017,74.484h-3.089
	c-2.056-7.182-8.679-12.257-16.268-12.257s-14.212,5.075-16.268,12.257h-11.715c-2.056-7.182-8.679-12.257-16.268-12.257
	s-14.212,5.075-16.268,12.257h-6.725V70.89h1.826c0.511,0,0.996-0.223,1.328-0.61c0.333-0.388,0.479-0.901,0.401-1.405
	c-0.743-4.832-0.697-8.634,0.124-10.17c3.115-5.825,17.698-17.486,20.018-17.845h56.153c1.954,0,3.543,1.59,3.543,3.543V69.14
	c0,0.967,0.784,1.75,1.75,1.75h1.455V74.484z"/>
<linearGradient id="SVGID_5_" gradientUnits="userSpaceOnUse" x1="-98.8843" y1="49.1714" x2="-80.3843" y2="49.1714">
	<stop  offset="0" style="stop-color:#3D434F"/>
	<stop  offset="1" style="stop-color:#E5204F"/>
</linearGradient>
<path fill="url(#SVGID_5_)" d="M-82.022,43.711c-0.087-0.005-2.15-0.137-4.224-0.137c-3.213,0-4.254,0.306-4.893,0.798
	c-1.006,0.776-5.821,5.891-7.273,7.439c-0.477,0.509-0.605,1.252-0.329,1.892c0.277,0.64,0.908,1.055,1.605,1.055l14.917,0.01
	c0,0,0,0,0.001,0c0.959,0,1.739-0.772,1.75-1.731l0.083-7.56C-80.375,44.547-81.093,43.772-82.022,43.711z M-83.949,51.267
	l-9.124-0.006c1.815-1.901,3.4-3.523,3.948-4.012c0.243-0.057,0.983-0.175,2.879-0.175c0.82,0,1.652,0.022,2.343,0.049
	L-83.949,51.267z"/>
<linearGradient id="SVGID_6_" gradientUnits="userSpaceOnUse" x1="-77.2827" y1="49.2178" x2="-37.5337" y2="49.2178">
	<stop  offset="0" style="stop-color:#3D434F"/>
	<stop  offset="1" style="stop-color:#E5204F"/>
</linearGradient>
<path fill="url(#SVGID_6_)" d="M-39.284,51.268h-34.499v-5.851c0-0.966-0.784-1.75-1.75-1.75c-0.967,0-1.75,0.784-1.75,1.75v7.601
	c0,0.967,0.783,1.75,1.75,1.75h36.249c0.967,0,1.75-0.783,1.75-1.75C-37.534,52.052-38.317,51.268-39.284,51.268z"/>
<g>
	<linearGradient id="SVGID_7_" gradientUnits="userSpaceOnUse" x1="42.0864" y1="26.0146" x2="63.5522" y2="26.0146">
		<stop  offset="0" style="stop-color:#3D434F"/>
		<stop  offset="1" style="stop-color:#E5204F"/>
	</linearGradient>
	<path fill="url(#SVGID_7_)" d="M43.76,31.54c0.101,0,0.204-0.008,0.306-0.028c2.676-0.494,6.912-1.542,8.752-3.419
		c1.841,1.877,6.077,2.925,8.752,3.419c0.103,0.02,0.206,0.028,0.306,0.028c0.792,0,1.497-0.564,1.646-1.37
		c0.168-0.909-0.433-1.785-1.342-1.953c-2.755-0.511-5.627-1.461-6.663-2.162l3.003-2.628c0.697-0.61,0.767-1.668,0.158-2.364
		c-0.611-0.699-1.669-0.768-2.365-0.158l-3.242,2.837c-0.097,0.084-0.171,0.17-0.254,0.255c-0.083-0.085-0.157-0.17-0.254-0.255
		l-3.242-2.837c-0.697-0.609-1.757-0.539-2.365,0.158c-0.61,0.696-0.54,1.754,0.157,2.364l3.004,2.628
		c-1.036,0.701-3.908,1.651-6.663,2.162c-0.91,0.168-1.51,1.044-1.342,1.953C42.264,30.976,42.968,31.54,43.76,31.54z"/>
	<linearGradient id="SVGID_8_" gradientUnits="userSpaceOnUse" x1="15.7788" y1="59.3535" x2="90.5972" y2="59.3535">
		<stop  offset="0" style="stop-color:#3D434F"/>
		<stop  offset="1" style="stop-color:#E5204F"/>
	</linearGradient>
	<path fill="url(#SVGID_8_)" d="M78.45,38.827c-0.576-0.724-1.628-0.845-2.354-0.27c-0.724,0.576-0.845,1.63-0.271,2.354
		c0.156,0.196,15.498,19.712,10.431,29.904c-2.197,4.42-8.221,6.561-17.93,6.329H38.012c-9.679,0.228-15.694-1.908-17.892-6.329
		c-5.066-10.192,10.274-29.708,10.43-29.904c0.575-0.725,0.455-1.778-0.27-2.354c-0.725-0.575-1.779-0.454-2.354,0.27
		c-0.689,0.868-16.816,21.386-10.809,33.478c2.707,5.45,9.295,8.208,19.559,8.208c0.451,0,0.909-0.005,1.374-0.017h30.239
		c11.089,0.236,18.145-2.503,20.97-8.191C95.266,60.213,79.139,39.695,78.45,38.827z"/>
	<linearGradient id="SVGID_9_" gradientUnits="userSpaceOnUse" x1="21.1104" y1="37.8877" x2="84.772" y2="37.8877">
		<stop  offset="0" style="stop-color:#3D434F"/>
		<stop  offset="1" style="stop-color:#E5204F"/>
	</linearGradient>
	<path fill="url(#SVGID_9_)" d="M23.079,42.042c0.217,0,0.437-0.042,0.649-0.131c0.853-0.36,1.254-1.342,0.894-2.195
		c-0.004-0.01-0.379-1.033,0.041-1.665c0.407-0.614,1.636-0.966,3.372-0.966h23.719h2.375h23.718c1.726,0,2.953,0.348,3.367,0.956
		c0.428,0.63,0.057,1.646,0.041,1.691c-0.348,0.848,0.052,1.822,0.9,2.18c0.211,0.089,0.432,0.131,0.65,0.131
		c0.653,0,1.275-0.385,1.544-1.025c0.114-0.271,1.07-2.701-0.338-4.82c-1.084-1.635-3.159-2.463-6.165-2.463H54.129h-2.375H28.035
		c-3.005,0-5.079,0.828-6.165,2.463c-1.408,2.121-0.451,4.551-0.337,4.82C21.803,41.657,22.424,42.042,23.079,42.042z"/>
	<linearGradient id="SVGID_10_" gradientUnits="userSpaceOnUse" x1="31.3179" y1="40.6279" x2="56.3267" y2="40.6279">
		<stop  offset="0" style="stop-color:#3D434F"/>
		<stop  offset="1" style="stop-color:#E5204F"/>
	</linearGradient>
	<path fill="url(#SVGID_10_)" d="M32.994,38.952c-0.926,0-1.676,0.75-1.676,1.676c0,0.925,0.75,1.676,1.676,1.676h21.657
		c0.925,0,1.676-0.75,1.676-1.676c0-0.926-0.75-1.676-1.676-1.676H32.994z"/>
</g>
<linearGradient id="SVGID_11_" gradientUnits="userSpaceOnUse" x1="130.1123" y1="52.501" x2="212.9453" y2="52.501">
	<stop  offset="0" style="stop-color:#3D434F"/>
	<stop  offset="1" style="stop-color:#E5204F"/>
</linearGradient>
<path fill="url(#SVGID_11_)" d="M171.529,11.084c-22.838,0-41.417,18.58-41.417,41.417c0,21.617,16.651,39.409,37.798,41.249
	c0.412,0.042,0.844,0.074,1.293,0.099c0.129,0.007,0.258,0.014,0.389,0.02c0.393,0.017,0.801,0.027,1.223,0.031
	c0.238,0.004,0.475,0.018,0.715,0.018c0.994,0,1.977-0.048,2.953-0.117c2.65-0.163,4.686-0.459,4.803-0.477
	c0.262-0.039,0.51-0.137,0.725-0.282c18.783-3.924,32.936-20.609,32.936-40.541C212.945,29.664,194.365,11.084,171.529,11.084z
	 M153.025,75.059l-3.229,1.915l-1.771,1.051l-0.488-0.467l0.959-1.801l1.758-3.302l13.25-24.885l3.566,3.408l-2.162,2.265
	c-1.279,1.338-1.619,3.126-0.912,4.783c0.754,1.76,2.494,2.942,4.334,2.942c1.184,0,2.314-0.504,3.186-1.417l2.162-2.264
	l3.568,3.405L153.025,75.059z M167.484,55.702l3.391-3.553c0.01-0.01,0.016-0.021,0.025-0.032c0.008-0.008,0.018-0.014,0.023-0.021
	l4.02-4.208c0.299-0.313,0.533-0.313,0.609-0.313c0.4,0,0.875,0.351,1.061,0.781c0.145,0.339,0.082,0.616-0.213,0.923l-4.018,4.209
	c-0.01,0.009-0.016,0.021-0.023,0.03c-0.01,0.009-0.02,0.014-0.027,0.022l-3.391,3.551c-0.301,0.314-0.533,0.314-0.611,0.314
	c-0.4,0-0.875-0.351-1.059-0.781C167.125,56.286,167.189,56.009,167.484,55.702z M176.188,54.66l2.789-2.922
	c1.277-1.339,1.619-3.127,0.91-4.783c-0.752-1.759-2.494-2.94-4.334-2.94c-1.182,0-2.313,0.502-3.186,1.415l-2.789,2.92
	l-3.566-3.406l24.803-14.713l3.209-1.903l1.209-0.717l0.488,0.468l-0.666,1.249l-1.762,3.309l-13.539,25.43L176.188,54.66z
	 M180.158,15.587c6.035,1.411,11.516,4.271,16.064,8.184c-0.52-0.236-1.135-0.216-1.646,0.088l-3.459,2.053l-0.67,0.396
	c-3.588-2.598-7.73-4.462-12.209-5.413L180.158,15.587z M171.533,14.634c1.941,0,3.791,0.174,5.125,0.342l-1.941,5.364l-1.23,3.4
	l-1.852,5.119l-1.998-5.123l-1.328-3.408l-1.998-5.125C167.721,14.829,169.492,14.634,171.533,14.634z M170.066,34.47
	c0.262,0.672,0.908,1.114,1.629,1.114c0.008,0,0.016,0,0.021,0c0.73-0.009,1.377-0.469,1.625-1.155l3.695-10.213
	c3.656,0.712,7.068,2.105,10.094,4.06l-24.953,14.801c-0.154,0.091-0.281,0.208-0.398,0.336c-0.07,0.07-0.131,0.146-0.189,0.229l0,0
	c-0.043,0.061-0.09,0.116-0.125,0.183l-13.471,25.297c-2.344-3.311-3.996-7.137-4.779-11.269h4.652c0.967,0,1.75-0.783,1.75-1.75v-7
	c0-0.966-0.783-1.75-1.75-1.75h-4.711c2.113-11.671,11.277-20.915,22.904-23.157L170.066,34.47z M143.949,54.352v-3.5h2.168v3.5
	H143.949z M133.612,52.501c0-17.875,12.437-32.889,29.108-36.873l2.049,5.255c-14.594,3.117-25.574,16.107-25.574,31.617
	c0,7.561,2.617,14.518,6.982,20.03l-0.215,0.405l-2.203,4.14c-0.168,0.313-0.217,0.659-0.188,0.995
	C137.394,71.326,133.612,62.35,133.612,52.501z M162.777,89.386c-5.572-1.322-10.67-3.882-14.992-7.363
	c0.309-0.002,0.617-0.082,0.896-0.247l4.109-2.438l0.398-0.237c3.455,2.389,7.398,4.111,11.643,5.012L162.777,89.386z
	 M174.65,90.279c-1.057,0.072-2.217,0.127-3.4,0.127c-0.102,0-0.193-0.002-0.293-0.003c-0.447-0.007-0.896-0.012-1.34-0.034
	c-0.039-0.001-0.074-0.004-0.111-0.006c-0.432-0.023-0.859-0.061-1.287-0.098c-0.779-0.082-1.408-0.19-1.906-0.309l2.063-5.292
	l1.322-3.395l1.938-4.969l1.797,4.965l1.234,3.415l1.949,5.387C175.965,90.154,175.311,90.224,174.65,90.279z M173.342,70.73
	c-0.248-0.686-0.895-1.146-1.625-1.154c-0.711-0.02-1.387,0.435-1.65,1.114l-3.945,10.119c-3.447-0.659-6.682-1.924-9.58-3.694
	l24.541-14.557c0.152-0.091,0.281-0.207,0.396-0.334c0.123-0.123,0.234-0.256,0.316-0.413l13.572-25.491
	c2.221,3.263,3.783,7.004,4.516,11.033H195.5c-0.967,0-1.75,0.784-1.75,1.75v7c0,0.967,0.783,1.75,1.75,1.75h4.361
	c-2.184,11.578-11.309,20.731-22.873,22.957L173.342,70.73z M199.418,50.852v3.5h-2.168v-3.5H199.418z M180.105,89.427l-1.912-5.287
	c14.643-3.08,25.67-16.095,25.67-31.639c0-7.375-2.494-14.173-6.666-19.62l0.367-0.689l1.934-3.634
	c0.266-0.5,0.262-1.078,0.037-1.571c6.148,6.739,9.91,15.692,9.91,25.514C209.445,70.458,196.895,85.528,180.105,89.427z"/>
<g>
	<g>
		<linearGradient id="SVGID_12_" gradientUnits="userSpaceOnUse" x1="251.5381" y1="53.501" x2="329.8682" y2="53.501">
			<stop  offset="0" style="stop-color:#3D434F"/>
			<stop  offset="1" style="stop-color:#E5204F"/>
		</linearGradient>
		<path fill="url(#SVGID_12_)" d="M322.827,32.582h-42.756l-1.56-3.134c-0.542-1.09-1.636-1.767-2.854-1.767h-11.251
			c-1.248,0-2.387,0.733-2.902,1.87l-1.375,3.03h-1.551c-3.883,0-7.041,3.334-7.041,7.433v31.875c0,4.099,3.158,7.432,7.041,7.432
			h64.248c3.883,0,7.041-3.333,7.041-7.432V40.014C329.868,35.916,326.71,32.582,322.827,32.582z M255.182,40.014
			c0-2.089,1.524-3.789,3.397-3.789h3.898l2.224-4.901h10.675l2.439,4.901h45.012c1.874,0,3.397,1.7,3.397,3.789v31.875
			c0,2.089-1.523,3.789-3.397,3.789h-64.248c-1.873,0-3.397-1.7-3.397-3.789V40.014z"/>
		<linearGradient id="SVGID_13_" gradientUnits="userSpaceOnUse" x1="261.29" y1="44.0762" x2="279.2998" y2="44.0762">
			<stop  offset="0" style="stop-color:#3D434F"/>
			<stop  offset="1" style="stop-color:#E5204F"/>
		</linearGradient>
		<path fill="url(#SVGID_13_)" d="M267.04,49.828h6.509c3.171,0,5.751-2.58,5.751-5.751c0-3.172-2.58-5.752-5.751-5.752h-6.509
			c-3.171,0-5.75,2.58-5.75,5.752C261.29,47.248,263.869,49.828,267.04,49.828z M267.04,41.968h6.509
			c1.161,0,2.107,0.945,2.107,2.108c0,1.162-0.946,2.108-2.107,2.108h-6.509c-1.162,0-2.107-0.946-2.107-2.108
			C264.933,42.914,265.878,41.968,267.04,41.968z"/>
		<linearGradient id="SVGID_14_" gradientUnits="userSpaceOnUse" x1="286.8721" y1="56.3408" x2="320.9814" y2="56.3408">
			<stop  offset="0" style="stop-color:#3D434F"/>
			<stop  offset="1" style="stop-color:#E5204F"/>
		</linearGradient>
		<path fill="url(#SVGID_14_)" d="M303.927,73.396c9.404,0,17.055-7.651,17.055-17.056c0-9.403-7.65-17.055-17.055-17.055
			s-17.055,7.651-17.055,17.055C286.872,65.745,294.522,73.396,303.927,73.396z M303.927,42.929c7.396,0,13.412,6.016,13.412,13.411
			s-6.016,13.412-13.412,13.412c-7.395,0-13.412-6.017-13.412-13.412S296.532,42.929,303.927,42.929z"/>
	</g>
	<linearGradient id="SVGID_15_" gradientUnits="userSpaceOnUse" x1="298.4326" y1="56.3403" x2="309.4219" y2="56.3403">
		<stop  offset="0" style="stop-color:#3D434F"/>
		<stop  offset="1" style="stop-color:#E5204F"/>
	</linearGradient>
	<circle fill="url(#SVGID_15_)" cx="303.927" cy="56.34" r="5.495"/>
</g>
<g>
	<linearGradient id="SVGID_16_" gradientUnits="userSpaceOnUse" x1="367.9854" y1="46.501" x2="453.3613" y2="46.501">
		<stop  offset="0" style="stop-color:#3D434F"/>
		<stop  offset="1" style="stop-color:#E5204F"/>
	</linearGradient>
	<path fill="url(#SVGID_16_)" d="M447.382,55.668h-39.883l12.875-15.336c0.627-0.675,6.088-6.739,4.893-11.847
		c-1-4.268-3.908-19.085-3.938-19.235c-0.129-0.656-0.62-1.182-1.266-1.354c-0.646-0.171-1.334,0.039-1.772,0.543l-41.046,47.229
		h-3.279c-3.297,0-5.98,2.682-5.98,5.979v17.536c0,3.297,2.684,5.979,5.98,5.979h73.416c3.297,0,5.979-2.683,5.979-5.979V61.648
		C453.361,58.35,450.679,55.668,447.382,55.668z M418.587,13.434c0.934,4.704,2.557,12.792,3.271,15.85
		c0.654,2.795-2.791,7.308-4.107,8.732l-14.82,17.652h-21.048L418.587,13.434z M449.861,79.184c0,1.367-1.112,2.479-2.479,2.479
		h-61.709h-5.252h-6.455c-1.367,0-2.48-1.112-2.48-2.479v-7.605v-9.283v-0.647c0-1.368,1.113-2.479,2.48-2.479h0.238h4.637h21.15
		h4.568h42.822c1.367,0,2.479,1.111,2.479,2.479V79.184z"/>
	<linearGradient id="SVGID_17_" gradientUnits="userSpaceOnUse" x1="373.5732" y1="70.2935" x2="386.3057" y2="70.2935">
		<stop  offset="0" style="stop-color:#3D434F"/>
		<stop  offset="1" style="stop-color:#E5204F"/>
	</linearGradient>
	<path fill="url(#SVGID_17_)" d="M379.94,63.927c-3.014,0-5.539,2.106-6.195,4.923c-0.108,0.465-0.172,0.946-0.172,1.443
		c0,3.51,2.856,6.366,6.367,6.366c0.232,0,0.462-0.015,0.688-0.039c3.188-0.345,5.677-3.05,5.677-6.327
		C386.306,66.784,383.45,63.927,379.94,63.927z M379.94,73.16c-1.581,0-2.867-1.285-2.867-2.866s1.286-2.866,2.867-2.866
		c1.58,0,2.865,1.285,2.865,2.866S381.521,73.16,379.94,73.16z"/>
	<linearGradient id="SVGID_18_" gradientUnits="userSpaceOnUse" x1="396.21" y1="37.8398" x2="408.8535" y2="37.8398">
		<stop  offset="0" style="stop-color:#3D434F"/>
		<stop  offset="1" style="stop-color:#E5204F"/>
	</linearGradient>
	<path fill="url(#SVGID_18_)" d="M408.243,31.185c-0.732-0.629-1.838-0.545-2.468,0.188l-9.144,10.653
		c-0.629,0.733-0.545,1.838,0.188,2.468c0.33,0.283,0.735,0.422,1.139,0.422c0.493,0,0.983-0.207,1.329-0.61l9.144-10.653
		C409.062,32.919,408.977,31.815,408.243,31.185z"/>
</g>
<g>
	<linearGradient id="SVGID_19_" gradientUnits="userSpaceOnUse" x1="-104.8413" y1="172.501" x2="-33.8037" y2="172.501">
		<stop  offset="0" style="stop-color:#3D434F"/>
		<stop  offset="1" style="stop-color:#E5204F"/>
	</linearGradient>
	<path fill="url(#SVGID_19_)" d="M-66.731,212.809h-5.183c-0.966,0-1.75-0.784-1.75-1.75V182.37h-19.312
		c-0.383,0-0.756-0.126-1.061-0.358l-10.115-7.709c-0.427-0.324-0.681-0.826-0.689-1.361c-0.01-0.537,0.229-1.047,0.643-1.386
		l10.117-8.253c0.313-0.255,0.703-0.395,1.105-0.395h19.312v-5.207h-29.427c-0.967,0-1.75-0.783-1.75-1.75v-15.962
		c0-0.966,0.783-1.75,1.75-1.75h29.427v-4.295c0-0.966,0.784-1.75,1.75-1.75h5.183c0.966,0,1.75,0.784,1.75,1.75v4.295h19.311
		c0.404,0,0.795,0.139,1.107,0.394l10.115,8.253c0.416,0.339,0.652,0.85,0.645,1.386c-0.01,0.536-0.264,1.039-0.689,1.363
		l-10.117,7.708c-0.305,0.232-0.677,0.358-1.061,0.358h-19.311v5.207h29.428c0.966,0,1.75,0.784,1.75,1.75v15.962
		c0,0.966-0.784,1.75-1.75,1.75h-29.428v28.688C-64.981,212.024-65.766,212.809-66.731,212.809z M-70.164,209.309h1.683V180.62
		c0-0.967,0.783-1.75,1.75-1.75h29.428v-12.462h-29.428c-0.967,0-1.75-0.784-1.75-1.75v-8.707c0-0.966,0.783-1.75,1.75-1.75h20.471
		l7.881-6.005l-7.914-6.457h-20.438c-0.967,0-1.75-0.784-1.75-1.75v-4.295h-1.683v4.295c0,0.966-0.784,1.75-1.75,1.75h-29.427
		v12.462h29.427c0.966,0,1.75,0.784,1.75,1.75v8.707c0,0.966-0.784,1.75-1.75,1.75h-20.438l-7.914,6.458l7.882,6.005h20.47
		c0.966,0,1.75,0.783,1.75,1.75V209.309z"/>
</g>
<g>
	<linearGradient id="SVGID_20_" gradientUnits="userSpaceOnUse" x1="7.1362" y1="198.2979" x2="86.7739" y2="198.2979">
		<stop  offset="0" style="stop-color:#3D434F"/>
		<stop  offset="1" style="stop-color:#E5204F"/>
	</linearGradient>
	<path fill="url(#SVGID_20_)" d="M86.688,187.646c-0.02-0.953-0.797-1.713-1.75-1.713L8.886,185.93c-0.629,0-1.21,0.338-1.521,0.885
		s-0.305,1.219,0.017,1.76c0.536,0.9,13.289,22.084,27.035,22.084h44.985c0.073,0.004,0.195,0.008,0.358,0.008
		c2.667,0,5.79-1.137,6.559-4.33C87.003,203.494,86.723,189.26,86.688,187.646z M82.916,205.518
		c-0.358,1.488-2.326,1.648-3.155,1.648c-0.103,0-0.17-0.002-0.181-0.002c-0.042-0.004-0.084-0.006-0.126-0.006H34.417
		c-9.152,0-18.537-12.215-22.307-17.729l71.111,0.004C83.317,195.406,83.312,203.873,82.916,205.518z"/>
	<linearGradient id="SVGID_21_" gradientUnits="userSpaceOnUse" x1="6.7256" y1="156.2451" x2="61.229" y2="156.2451">
		<stop  offset="0" style="stop-color:#3D434F"/>
		<stop  offset="1" style="stop-color:#E5204F"/>
	</linearGradient>
	<path fill="url(#SVGID_21_)" d="M8.477,183.496c0.255,0,0.514-0.057,0.755-0.172c0.142-0.068,14.307-6.791,25.093-6.791
		c11.995,0,24.19,6.615,24.312,6.682c0.543,0.297,1.202,0.287,1.734-0.027c0.532-0.316,0.859-0.887,0.859-1.506v-50.938
		c0-0.967-0.784-1.75-1.75-1.75c-22.543,0-51.309,49.764-52.522,51.883c-0.381,0.664-0.285,1.5,0.237,2.061
		C7.533,183.303,8,183.496,8.477,183.496z M57.729,132.609v46.247c-4.414-2.055-13.812-5.822-23.404-5.822
		c-7.501,0-16.183,2.867-21.54,4.969C20.245,166.024,41.195,134.745,57.729,132.609z"/>
	<linearGradient id="SVGID_22_" gradientUnits="userSpaceOnUse" x1="63.5063" y1="162.168" x2="86.6479" y2="162.168">
		<stop  offset="0" style="stop-color:#3D434F"/>
		<stop  offset="1" style="stop-color:#E5204F"/>
	</linearGradient>
	<path fill="url(#SVGID_22_)" d="M66.294,161.345c0,14.766-2.526,19.426-2.546,19.463c-0.389,0.664-0.3,1.502,0.219,2.068
		s1.347,0.729,2.041,0.4c0.06-0.029,6.046-2.846,10.457-2.846c3.69,0,7.323,2.67,7.384,2.715c0.311,0.232,0.68,0.35,1.05,0.35
		c0.346,0,0.693-0.102,0.992-0.309c0.62-0.426,0.897-1.201,0.69-1.924c-2.725-9.482-12.315-40.424-21.324-40.424
		c-0.56,0-1.085,0.268-1.415,0.72c-0.33,0.452-0.423,1.035-0.251,1.567C64.808,146.9,66.294,156.047,66.294,161.345z M81.999,178.15
		c-1.589-0.664-3.522-1.219-5.535-1.219c-2.78,0-5.933,0.875-8.305,1.709c0.798-3.201,1.635-8.625,1.635-17.295
		c0-4.267-0.864-10.595-1.84-15.226C72.109,150.882,77.775,164.481,81.999,178.15z"/>
	<linearGradient id="SVGID_23_" gradientUnits="userSpaceOnUse" x1="26.8062" y1="198.2109" x2="38.3594" y2="198.2109">
		<stop  offset="0" style="stop-color:#3D434F"/>
		<stop  offset="1" style="stop-color:#E5204F"/>
	</linearGradient>
	<path fill="url(#SVGID_23_)" d="M32.583,192.434c-3.185,0-5.776,2.592-5.776,5.777s2.591,5.777,5.776,5.777
		c3.186,0,5.777-2.592,5.777-5.777S35.768,192.434,32.583,192.434z M32.583,200.488c-1.255,0-2.276-1.021-2.276-2.277
		s1.021-2.277,2.276-2.277s2.277,1.021,2.277,2.277S33.838,200.488,32.583,200.488z"/>
</g>
<g>
	<linearGradient id="SVGID_24_" gradientUnits="userSpaceOnUse" x1="139.583" y1="162.9502" x2="144.9521" y2="162.9502">
		<stop  offset="0" style="stop-color:#3D434F"/>
		<stop  offset="1" style="stop-color:#E5204F"/>
	</linearGradient>
	<path fill="url(#SVGID_24_)" d="M143.092,156.57c0.021-0.966-0.744-1.767-1.711-1.788c-0.943-0.023-1.766,0.743-1.789,1.71
		c-0.092,4.133,0.557,8.629,1.93,13.364c0.221,0.766,0.92,1.264,1.68,1.264c0.16,0,0.324-0.021,0.488-0.07
		c0.928-0.268,1.461-1.238,1.193-2.168C143.609,164.49,143.006,160.348,143.092,156.57z"/>
	<linearGradient id="SVGID_25_" gradientUnits="userSpaceOnUse" x1="146.5781" y1="140.1494" x2="152.3701" y2="140.1494">
		<stop  offset="0" style="stop-color:#3D434F"/>
		<stop  offset="1" style="stop-color:#E5204F"/>
	</linearGradient>
	<path fill="url(#SVGID_25_)" d="M149.627,137.739c-0.799,0.552-1.625,1.249-2.525,2.132c-0.689,0.677-0.699,1.785-0.023,2.475
		c0.344,0.35,0.797,0.524,1.25,0.524c0.441,0,0.885-0.166,1.225-0.501c0.756-0.741,1.43-1.313,2.063-1.749
		c0.795-0.549,0.994-1.639,0.445-2.435C151.512,137.39,150.422,137.19,149.627,137.739z"/>
	<linearGradient id="SVGID_26_" gradientUnits="userSpaceOnUse" x1="164.3486" y1="158.5068" x2="167.9932" y2="158.5068">
		<stop  offset="0" style="stop-color:#3D434F"/>
		<stop  offset="1" style="stop-color:#E5204F"/>
	</linearGradient>
	<path fill="url(#SVGID_26_)" d="M166.197,154.782c-0.967,0.021-1.732,0.821-1.713,1.787c0.027,1.23-0.016,2.494-0.129,3.759
		c-0.084,0.961,0.627,1.813,1.59,1.896c0.053,0.006,0.104,0.008,0.156,0.008c0.896,0,1.66-0.686,1.74-1.596
		c0.125-1.393,0.172-2.787,0.143-4.144C167.963,155.526,167.141,154.757,166.197,154.782z"/>
	<linearGradient id="SVGID_27_" gradientUnits="userSpaceOnUse" x1="126.377" y1="172.8291" x2="215.998" y2="172.8291">
		<stop  offset="0" style="stop-color:#3D434F"/>
		<stop  offset="1" style="stop-color:#E5204F"/>
	</linearGradient>
	<path fill="url(#SVGID_27_)" d="M207.662,142.663c-2.043-3.992-6.105-6.51-10.664-6.51c-6.109,0-11.168,4.59-11.906,10.502
		c-2.043,0.047-3.863,1.007-5.072,2.485c-3.938-10.508-14.08-18.009-25.945-18.009c-15.271,0-27.697,12.426-27.697,27.699
		c0,9.408,3.918,14.484,8.453,20.363c1.213,1.572,2.467,3.197,3.734,5.01c2.244,3.215,8.975,15.984,9.043,16.113l0.105,0.199
		c-0.193,0.281-0.307,0.621-0.307,0.988v5.553c-0.002,0.053-0.016,0.102-0.016,0.154v3.268c0,2.232,1.816,4.049,4.049,4.049h5.014
		c2.232,0,4.049-1.816,4.049-4.049v-3.268c0-0.09-0.02-0.176-0.025-0.266v-5.441c0-0.266-0.064-0.514-0.17-0.74l0.236-0.447
		c0.068-0.129,6.799-12.898,9.043-16.111c1.268-1.814,2.521-3.439,3.734-5.012c4.479-5.807,8.348-10.838,8.443-20.02
		c1.02,0.617,2.209,0.979,3.484,0.979c1.889,0,3.66-0.797,4.916-2.137c1.994,1.389,4.359,2.137,6.834,2.137
		c1.951,0,3.852-0.469,5.563-1.367c1.395,0.889,3.02,1.367,4.688,1.367c4.824,0,8.75-3.924,8.75-8.75
		C215.998,146.717,212.295,142.879,207.662,142.663z M159.936,194.023c-0.836,1.549-1.549,2.887-1.996,3.727h-7.73
		c-0.449-0.846-1.17-2.199-2.014-3.762L159.936,194.023z M156.977,203.215c-0.174-0.021-0.344-0.053-0.523-0.053h-5.014
		c-0.184,0-0.357,0.031-0.533,0.055v-1.713c0-0.086-0.014-0.17-0.027-0.254h6.123c-0.014,0.084-0.025,0.168-0.025,0.254V203.215z
		 M156.453,211.027h-5.014c-0.303,0-0.549-0.246-0.549-0.549v-0.313c0.004-0.051,0.016-0.102,0.016-0.154v-2.877
		c0.039-0.266,0.258-0.473,0.533-0.473h5.014c0.256,0,0.461,0.18,0.523,0.416v2.934c0,0.092,0.012,0.178,0.025,0.266v0.201
		C157.002,210.781,156.756,211.027,156.453,211.027z M170.549,177.055c-1.236,1.605-2.518,3.264-3.832,5.145
		c-1.078,1.543-3.035,4.986-4.877,8.33l-3.414-0.01c1.016-3.172,2.273-6.326,3.508-9.387c1.871-4.641,3.807-9.439,4.949-14.479
		c0.215-0.941-0.377-1.879-1.32-2.092c-0.941-0.215-1.879,0.377-2.092,1.318c-1.08,4.766-2.963,9.432-4.783,13.943
		c-1.395,3.455-2.826,7.025-3.934,10.684l-1.932-0.006c-1.107-3.668-2.516-7.152-3.883-10.521c-0.604-1.486-1.207-2.971-1.785-4.473
		c-0.346-0.902-1.361-1.354-2.262-1.006s-1.352,1.359-1.004,2.262c0.586,1.521,1.195,3.027,1.809,4.533
		c1.207,2.975,2.436,6.041,3.447,9.195l-2.859-0.008c-1.834-3.33-3.779-6.748-4.852-8.285c-1.314-1.881-2.594-3.539-3.832-5.145
		c-4.484-5.811-7.725-10.01-7.725-18.225c0-13.343,10.855-24.199,24.197-24.199c13.344,0,24.199,10.855,24.199,24.199
		C178.273,167.043,175.033,171.242,170.549,177.055z M207.248,156.653c-1.258,0-2.477-0.456-3.432-1.285
		c-0.328-0.284-0.736-0.429-1.148-0.429c-0.336,0-0.674,0.097-0.969,0.293c-1.396,0.93-3.021,1.421-4.701,1.421
		c-2.246,0-4.365-0.87-5.967-2.451c-0.408-0.402-0.986-0.579-1.551-0.475c-0.563,0.105-1.039,0.479-1.273,1.003
		c-0.527,1.168-1.688,1.923-2.959,1.923c-1.791,0-3.25-1.458-3.25-3.25s1.459-3.25,3.25-3.25c0.299,0,0.611,0.057,0.988,0.179
		c0.547,0.176,1.146,0.072,1.602-0.276c0.457-0.35,0.713-0.9,0.684-1.475l-0.012-0.209c-0.006-0.072-0.012-0.146-0.012-0.219
		c0-4.687,3.813-8.5,8.5-8.5c3.525,0,6.633,2.128,7.914,5.421c0.285,0.731,1.025,1.179,1.805,1.106
		c0.174-0.018,0.352-0.027,0.531-0.027c2.895,0,5.25,2.355,5.25,5.25C212.498,154.298,210.143,156.653,207.248,156.653z"/>
</g>
<g>
	<linearGradient id="SVGID_28_" gradientUnits="userSpaceOnUse" x1="251.8428" y1="171.8301" x2="327.2148" y2="171.8301">
		<stop  offset="0" style="stop-color:#3D434F"/>
		<stop  offset="1" style="stop-color:#E5204F"/>
	</linearGradient>
	<path fill="url(#SVGID_28_)" d="M327.213,143.938c0.068-3.392-1.453-5.451-2.449-6.517l-0.031-0.033
		c-0.105-0.113-0.207-0.215-0.297-0.305c-0.092-0.091-0.191-0.191-0.307-0.298l-0.031-0.031c-1.066-0.996-3.127-2.518-6.518-2.45
		c-6.457,0.128-15.088,6.004-25.658,17.449l-22.664-0.795c0,0-6.248-0.365-9.949,1.247c-3.703,1.612-7.206,3.439-7.421,4.191
		c-0.118,0.413-0.011,0.853,0.385,1.247c0.264,0.264,0.654,0.509,1.192,0.713c0,0,22.271,7.882,25.6,9.059
		c-10.73,15.198-8.318,20.534-7.557,21.612c0.057,0.08,0.121,0.156,0.191,0.227l0.564,0.564c0.07,0.07,0.146,0.135,0.229,0.193
		c1.074,0.758,6.385,3.162,21.486-7.471c1.055,3.055,8.863,25.193,8.863,25.193c0.207,0.539,0.451,0.93,0.715,1.193
		c0.395,0.396,0.834,0.504,1.246,0.385c0.752-0.215,2.58-3.719,4.191-7.42c1.611-3.703,1.248-9.949,1.248-9.949l-0.775-22.075
		C321.105,159.173,327.084,150.452,327.213,143.938z M258.49,156.418c0.658-0.312,1.396-0.647,2.215-1.004
		c2.123-0.924,6.248-1.08,8.352-0.962c0.023,0.001,0.053,0.003,0.078,0.004l19.734,0.692c-3.059,3.481-5.633,6.636-7.771,9.476
		c-0.307-0.248-0.641-0.461-1.021-0.596L258.49,156.418z M305.785,200.496c-0.355,0.818-0.691,1.557-1.004,2.213l-7.609-21.586
		c-0.084-0.236-0.205-0.449-0.34-0.656c2.775-2.088,5.85-4.586,9.24-7.553l0.672,19.152c0,0.027,0.002,0.053,0.004,0.082
		C306.865,194.246,306.709,198.373,305.785,200.496z M305.604,168.659c-22.396,20.064-30.07,18.769-31.086,18.466L274.395,187
		c-0.305-1.014-1.598-8.688,18.467-31.084c13.281-14.827,20.811-18.033,24.789-18.112c2.109-0.041,3.322,0.819,4.057,1.508
		l0.094,0.093c0.1,0.098,0.217,0.214,0.313,0.313l0.094,0.096c0.688,0.734,1.549,1.946,1.508,4.056
		C323.635,147.846,320.43,155.376,305.604,168.659z"/>
	<linearGradient id="SVGID_29_" gradientUnits="userSpaceOnUse" x1="257.3945" y1="179.834" x2="271.9922" y2="179.834">
		<stop  offset="0" style="stop-color:#3D434F"/>
		<stop  offset="1" style="stop-color:#E5204F"/>
	</linearGradient>
	<path fill="url(#SVGID_29_)" d="M271.748,172.771c-1.348-1.35-7.932,1.813-10.871,3.174c-0.814,0.377-1.605,1.102-1.963,1.828
		c-0.92,1.863-2.352,5.389-0.898,6.842c0.248,0.25,0.582,0.438,1.018,0.547l8.891,2.063c0,0,0.328-5.512,3.643-12.342
		C272.096,173.791,272.102,173.125,271.748,172.771z M265.064,182.967l-4.053-0.939c0.143-0.59,0.439-1.479,1.018-2.656
		c0.064-0.078,0.213-0.203,0.318-0.25l0.479-0.223c1.533-0.711,2.855-1.297,3.965-1.752
		C265.957,179.371,265.416,181.363,265.064,182.967z"/>
	<linearGradient id="SVGID_30_" gradientUnits="userSpaceOnUse" x1="273.9766" y1="196.5068" x2="288.7578" y2="196.5068">
		<stop  offset="0" style="stop-color:#3D434F"/>
		<stop  offset="1" style="stop-color:#E5204F"/>
	</linearGradient>
	<path fill="url(#SVGID_30_)" d="M286.318,189.635c-6.83,3.313-12.342,3.641-12.342,3.641l2.063,8.893
		c0.109,0.434,0.297,0.768,0.545,1.016c1.455,1.455,4.98,0.021,6.842-0.898c0.729-0.355,1.453-1.146,1.83-1.963
		c1.359-2.939,4.523-9.521,3.174-10.869C288.076,189.098,287.41,189.105,286.318,189.635z M282.303,198.373l-0.223,0.48
		c-0.049,0.104-0.172,0.252-0.25,0.318c-1.18,0.576-2.066,0.873-2.656,1.016l-0.941-4.051c1.605-0.352,3.598-0.895,5.82-1.727
		C283.598,195.52,283.014,196.842,282.303,198.373z"/>
</g>
<g>
	<linearGradient id="SVGID_31_" gradientUnits="userSpaceOnUse" x1="381.9121" y1="159.0029" x2="421.3623" y2="159.0029">
		<stop  offset="0" style="stop-color:#3D434F"/>
		<stop  offset="1" style="stop-color:#E5204F"/>
	</linearGradient>
	<path fill="url(#SVGID_31_)" d="M401.638,188.545c7.983,0,19.725-29.945,19.725-39.36c0-10.877-8.85-19.725-19.725-19.725
		c-10.877,0-19.726,8.848-19.726,19.725C381.912,158.143,394.142,188.545,401.638,188.545z M385.839,149.185
		c0-8.711,7.087-15.798,15.799-15.798c8.711,0,15.797,7.087,15.797,15.798c0,4.524-2.529,12.991-6.445,21.573
		c-4.152,9.098-7.848,13.861-9.35,13.861c-0.732-0.051-4.251-3.434-9.104-13.885C388.53,162.113,385.839,153.451,385.839,149.185z"
		/>
	<linearGradient id="SVGID_32_" gradientUnits="userSpaceOnUse" x1="389.5742" y1="149.5127" x2="413.7002" y2="149.5127">
		<stop  offset="0" style="stop-color:#3D434F"/>
		<stop  offset="1" style="stop-color:#E5204F"/>
	</linearGradient>
	<path fill="url(#SVGID_32_)" d="M413.7,149.512c0-6.651-5.412-12.063-12.063-12.063c-6.652,0-12.063,5.412-12.063,12.063
		c0,6.652,5.411,12.064,12.063,12.064C408.288,161.576,413.7,156.164,413.7,149.512z M393.138,149.512c0-4.687,3.813-8.5,8.5-8.5
		c4.687,0,8.5,3.813,8.5,8.5c0,4.688-3.813,8.5-8.5,8.5C396.95,158.012,393.138,154.199,393.138,149.512z"/>
	<linearGradient id="SVGID_33_" gradientUnits="userSpaceOnUse" x1="371.2021" y1="184.1172" x2="448.2041" y2="184.1172">
		<stop  offset="0" style="stop-color:#3D434F"/>
		<stop  offset="1" style="stop-color:#E5204F"/>
	</linearGradient>
	<path fill="url(#SVGID_33_)" d="M448.099,206.631l-15.197-42.338c-0.178-0.494-0.563-0.883-1.057-1.064l-10.896-3.994l-0.143,0.479
		c-0.486,1.623-1.041,3.311-1.65,5.018l-0.039,0.107l1.613,12.039l-8.127,2.584l-0.09,0.162c-0.65,1.162-1.3,2.236-1.943,3.217
		l-0.035,0.053c-0.84,1.277-1.896,2.398-2.713,3.35l-0.336,0.131v17.67l-12.154-3.85l1.742-12.176l-0.117-0.166
		c-0.729-0.695-1.452-1.543-2.207-2.52l-0.674-0.889l-2.082,15.605l-16.196,4.547l7.214-20.088l8.834-3.533l-0.275-0.473
		c-0.436-0.744-0.861-1.506-1.274-2.273l-0.198-0.369l-5.485,2.193l2.774-7.727l-0.079-0.174c-0.523-1.158-1.03-2.328-1.505-3.48
		l-0.465-1.125l-14.029,39.084c-0.226,0.627-0.084,1.318,0.371,1.807c0.334,0.357,0.807,0.563,1.297,0.563
		c0.16,0,0.32-0.021,0.477-0.064l20.122-5.65l14.873,4.629c0.011,0.008,0.021,0.014,0.03,0.021c0.252,0.184,0.566,0.289,0.868,0.305
		c0.233,0.049,0.544,0.039,0.651,0.008c0.365-0.023,0.679-0.129,0.93-0.311c0.011-0.008,0.021-0.016,0.032-0.023l14.873-4.629
		l20.124,5.65c0.625,0.174,1.33-0.023,1.771-0.5C448.183,207.949,448.324,207.258,448.099,206.631z M411.485,204.043v-20.504
		l9.727-3.098l2.648,19.752L411.485,204.043z M422.522,163.584l7.324,2.686l4.871,13.57l-10.393-2.799L422.522,163.584z
		 M427.407,200.049l-2.572-19.203l11.341,3.053l7.431,20.697L427.407,200.049z"/>
</g>
</svg>
